<svg width="44" height="44" viewBox="0 0 44 44" fill="none" xmlns="http://www.w3.org/2000/svg">
<path fill-rule="evenodd" clip-rule="evenodd" d="M3.66675 22.0001C3.66675 20.9876 4.48756 20.1667 5.50008 20.1667H38.5001C39.5126 20.1667 40.3334 20.9876 40.3334 22.0001C40.3334 23.0126 39.5126 23.8334 38.5001 23.8334H5.50008C4.48756 23.8334 3.66675 23.0126 3.66675 22.0001Z" fill="#282846"/>
<path fill-rule="evenodd" clip-rule="evenodd" d="M3.66675 11.0001C3.66675 9.98756 4.48756 9.16675 5.50008 9.16675H38.5001C39.5126 9.16675 40.3334 9.98756 40.3334 11.0001C40.3334 12.0126 39.5126 12.8334 38.5001 12.8334H5.50008C4.48756 12.8334 3.66675 12.0126 3.66675 11.0001Z" fill="#282846"/>
<path fill-rule="evenodd" clip-rule="evenodd" d="M3.66675 33.0001C3.66675 31.9876 4.48756 31.1667 5.50008 31.1667H38.5001C39.5126 31.1667 40.3334 31.9876 40.3334 33.0001C40.3334 34.0126 39.5126 34.8334 38.5001 34.8334H5.50008C4.48756 34.8334 3.66675 34.0126 3.66675 33.0001Z" fill="#282846"/>
</svg>
