<svg width="25" height="24" viewBox="0 0 25 24" fill="none" xmlns="http://www.w3.org/2000/svg">
<g opacity="0.7">
<path d="M21.5 12.79C21.3427 14.4922 20.7039 16.1144 19.6582 17.4668C18.6126 18.8192 17.2035 19.8458 15.5957 20.4265C13.9879 21.0073 12.248 21.1181 10.5795 20.7461C8.91102 20.3741 7.38299 19.5345 6.17423 18.3258C4.96546 17.117 4.12594 15.589 3.75391 13.9205C3.38188 12.252 3.49272 10.5121 4.07346 8.9043C4.6542 7.29651 5.68083 5.88737 7.03321 4.84175C8.3856 3.79614 10.0078 3.15731 11.71 3C10.7134 4.34827 10.2338 6.00945 10.3585 7.68141C10.4832 9.35338 11.2039 10.9251 12.3894 12.1106C13.5749 13.2961 15.1466 14.0168 16.8186 14.1415C18.4906 14.2662 20.1517 13.7866 21.5 12.79V12.79Z" stroke="#282846" stroke-width="2" stroke-linecap="round" stroke-linejoin="round"/>
</g>
</svg>
