<svg width="433" height="172" viewBox="0 0 433 172" fill="none" xmlns="http://www.w3.org/2000/svg">
<path opacity="0.5" d="M21.7334 169H20.8301V164.464H18.3984V169H17.4902V163.717H21.7334V169ZM27.5 169H26.5967V166.744H24.1699V169H23.2617V163.717H24.1699V166.007H26.5967V163.717H27.5V169Z" fill="#282846"/>
<path opacity="0.5" d="M84.5371 169V163.717H86.5977C87.3008 163.717 87.8395 163.84 88.2139 164.088C88.5915 164.332 88.7803 164.692 88.7803 165.167C88.7803 165.411 88.707 165.632 88.5605 165.831C88.4141 166.026 88.1976 166.176 87.9111 166.28C88.2301 166.355 88.4857 166.502 88.6777 166.72C88.873 166.938 88.9707 167.198 88.9707 167.501C88.9707 167.986 88.7917 168.357 88.4336 168.614C88.0788 168.871 87.5758 169 86.9248 169H84.5371ZM85.4404 166.681V168.272H86.9346C87.3122 168.272 87.5938 168.202 87.7793 168.062C87.9681 167.923 88.0625 167.726 88.0625 167.472C88.0625 166.944 87.6751 166.681 86.9004 166.681H85.4404ZM85.4404 165.958H86.6074C87.4538 165.958 87.877 165.711 87.877 165.216C87.877 164.721 87.4766 164.465 86.6758 164.449H85.4404V165.958ZM94.0342 164.449H92.2617V169H91.3584V164.449H89.6201V163.717H94.0342V164.449Z" fill="#282846"/>
<path opacity="0.5" d="M153.378 168.36C153.7 168.36 153.982 168.263 154.223 168.067C154.464 167.872 154.597 167.628 154.623 167.335H155.478C155.461 167.638 155.357 167.926 155.165 168.199C154.973 168.473 154.716 168.691 154.394 168.854C154.075 169.016 153.736 169.098 153.378 169.098C152.659 169.098 152.086 168.858 151.659 168.38C151.236 167.898 151.024 167.241 151.024 166.407V166.256C151.024 165.742 151.119 165.284 151.308 164.884C151.496 164.483 151.767 164.173 152.118 163.951C152.473 163.73 152.891 163.619 153.373 163.619C153.965 163.619 154.457 163.797 154.848 164.151C155.242 164.506 155.451 164.967 155.478 165.533H154.623C154.597 165.191 154.467 164.911 154.232 164.693C154.001 164.472 153.715 164.361 153.373 164.361C152.914 164.361 152.558 164.527 152.304 164.859C152.053 165.188 151.928 165.665 151.928 166.29V166.461C151.928 167.07 152.053 167.538 152.304 167.867C152.554 168.196 152.912 168.36 153.378 168.36ZM160.956 166.417C160.956 167.221 160.772 167.869 160.404 168.36C160.036 168.852 159.538 169.098 158.91 169.098C158.269 169.098 157.764 168.894 157.396 168.487V171.031H156.493V163.717H157.318L157.362 164.303C157.73 163.847 158.241 163.619 158.896 163.619C159.53 163.619 160.032 163.858 160.399 164.337C160.771 164.815 160.956 165.481 160.956 166.334V166.417ZM160.053 166.314C160.053 165.719 159.926 165.248 159.672 164.903C159.418 164.558 159.07 164.386 158.627 164.386C158.08 164.386 157.67 164.628 157.396 165.113V167.638C157.667 168.119 158.08 168.36 158.637 168.36C159.07 168.36 159.413 168.189 159.667 167.848C159.924 167.503 160.053 166.992 160.053 166.314Z" fill="#282846"/>
<path opacity="0.5" d="M222.551 169H221.643V167.086C221.245 167.19 220.839 167.242 220.422 167.242C219.761 167.242 219.257 167.073 218.908 166.734C218.563 166.396 218.387 165.914 218.381 165.289V163.712H219.284V165.318C219.3 166.106 219.68 166.5 220.422 166.5C220.839 166.5 221.245 166.448 221.643 166.344V163.717H222.551V169ZM227.927 164.449H226.154V169H225.251V164.449H223.513V163.717H227.927V164.449Z" fill="#282846"/>
<path opacity="0.5" d="M288.717 169H287.813V164.464H285.382V169H284.474V163.717H288.717V169ZM294.093 164.449H292.32V169H291.417V164.449H289.679V163.717H294.093V164.449Z" fill="#282846"/>
<path opacity="0.5" d="M353.422 168.36C353.744 168.36 354.026 168.263 354.267 168.067C354.507 167.872 354.641 167.628 354.667 167.335H355.521C355.505 167.638 355.401 167.926 355.209 168.199C355.017 168.473 354.76 168.691 354.438 168.854C354.118 169.016 353.78 169.098 353.422 169.098C352.702 169.098 352.13 168.858 351.703 168.38C351.28 167.898 351.068 167.241 351.068 166.407V166.256C351.068 165.742 351.163 165.284 351.352 164.884C351.54 164.483 351.811 164.173 352.162 163.951C352.517 163.73 352.935 163.619 353.417 163.619C354.009 163.619 354.501 163.797 354.892 164.151C355.285 164.506 355.495 164.967 355.521 165.533H354.667C354.641 165.191 354.511 164.911 354.276 164.693C354.045 164.472 353.759 164.361 353.417 164.361C352.958 164.361 352.602 164.527 352.348 164.859C352.097 165.188 351.972 165.665 351.972 166.29V166.461C351.972 167.07 352.097 167.538 352.348 167.867C352.598 168.196 352.956 168.36 353.422 168.36ZM358.856 164.02C359.521 164.02 360.051 164.243 360.448 164.688C360.849 165.131 361.049 165.715 361.049 166.441V166.524C361.049 167.022 360.953 167.468 360.761 167.862C360.569 168.253 360.292 168.557 359.931 168.775C359.573 168.99 359.159 169.098 358.69 169.098C357.981 169.098 357.41 168.862 356.977 168.39C356.544 167.914 356.327 167.278 356.327 166.48V166.041C356.327 164.931 356.532 164.049 356.942 163.395C357.356 162.74 357.965 162.341 358.769 162.198C359.224 162.117 359.532 162.018 359.691 161.9C359.851 161.783 359.931 161.622 359.931 161.417H360.673C360.673 161.824 360.58 162.141 360.395 162.369C360.212 162.597 359.919 162.758 359.516 162.853L358.842 163.004C358.305 163.131 357.901 163.346 357.631 163.648C357.364 163.948 357.19 164.348 357.108 164.85C357.587 164.296 358.17 164.02 358.856 164.02ZM358.681 164.762C358.238 164.762 357.886 164.911 357.626 165.211C357.366 165.507 357.235 165.919 357.235 166.446V166.524C357.235 167.091 357.366 167.54 357.626 167.872C357.89 168.201 358.244 168.365 358.69 168.365C359.14 168.365 359.494 168.199 359.755 167.867C360.015 167.535 360.146 167.05 360.146 166.412C360.146 165.914 360.014 165.515 359.75 165.216C359.49 164.913 359.133 164.762 358.681 164.762Z" fill="#282846"/>
<path opacity="0.5" d="M418.293 169V163.717H420.354C421.057 163.717 421.595 163.84 421.97 164.088C422.347 164.332 422.536 164.692 422.536 165.167C422.536 165.411 422.463 165.632 422.316 165.831C422.17 166.026 421.953 166.176 421.667 166.28C421.986 166.355 422.242 166.502 422.434 166.72C422.629 166.938 422.727 167.198 422.727 167.501C422.727 167.986 422.548 168.357 422.189 168.614C421.835 168.871 421.332 169 420.681 169H418.293ZM419.196 166.681V168.272H420.69C421.068 168.272 421.35 168.202 421.535 168.062C421.724 167.923 421.818 167.726 421.818 167.472C421.818 166.944 421.431 166.681 420.656 166.681H419.196ZM419.196 165.958H420.363C421.21 165.958 421.633 165.711 421.633 165.216C421.633 164.721 421.232 164.465 420.432 164.449H419.196V165.958ZM426.042 168.36C426.364 168.36 426.646 168.263 426.887 168.067C427.128 167.872 427.261 167.628 427.287 167.335H428.142C428.125 167.638 428.021 167.926 427.829 168.199C427.637 168.473 427.38 168.691 427.058 168.854C426.739 169.016 426.4 169.098 426.042 169.098C425.323 169.098 424.75 168.858 424.323 168.38C423.9 167.898 423.688 167.241 423.688 166.407V166.256C423.688 165.742 423.783 165.284 423.972 164.884C424.16 164.483 424.431 164.173 424.782 163.951C425.137 163.73 425.555 163.619 426.037 163.619C426.63 163.619 427.121 163.797 427.512 164.151C427.906 164.506 428.116 164.967 428.142 165.533H427.287C427.261 165.191 427.131 164.911 426.896 164.693C426.665 164.472 426.379 164.361 426.037 164.361C425.578 164.361 425.222 164.527 424.968 164.859C424.717 165.188 424.592 165.665 424.592 166.29V166.461C424.592 167.07 424.717 167.538 424.968 167.867C425.218 168.196 425.576 168.36 426.042 168.36Z" fill="#282846"/>
<path opacity="0.5" d="M11.9336 150.968C11.9336 152.026 11.7529 152.812 11.3916 153.326C11.0303 153.84 10.4655 154.098 9.69727 154.098C8.9388 154.098 8.37728 153.847 8.0127 153.346C7.64811 152.841 7.45931 152.089 7.44629 151.09V149.884C7.44629 148.839 7.62695 148.062 7.98828 147.555C8.34961 147.047 8.91602 146.793 9.6875 146.793C10.4525 146.793 11.0156 147.039 11.377 147.53C11.7383 148.019 11.9238 148.774 11.9336 149.796V150.968ZM11.0303 149.732C11.0303 148.967 10.9229 148.411 10.708 148.062C10.4932 147.711 10.153 147.535 9.6875 147.535C9.22526 147.535 8.88835 147.709 8.67676 148.058C8.46517 148.406 8.35612 148.941 8.34961 149.664V151.109C8.34961 151.878 8.46029 152.446 8.68164 152.813C8.90625 153.178 9.24479 153.36 9.69727 153.36C10.1432 153.36 10.4736 153.188 10.6885 152.843C10.9066 152.498 11.0205 151.954 11.0303 151.212V149.732Z" fill="#282846"/>
<path opacity="0.5" d="M7.89062 101.436L8.25195 97.8906H11.8945V98.7256H9.01855L8.80371 100.664C9.15202 100.459 9.54753 100.356 9.99023 100.356C10.638 100.356 11.1523 100.571 11.5332 101.001C11.9141 101.427 12.1045 102.005 12.1045 102.734C12.1045 103.467 11.9059 104.045 11.5088 104.468C11.1149 104.888 10.5632 105.098 9.85352 105.098C9.22526 105.098 8.71257 104.924 8.31543 104.575C7.91829 104.227 7.69206 103.745 7.63672 103.13H8.49121C8.54655 103.537 8.69141 103.844 8.92578 104.053C9.16016 104.258 9.4694 104.36 9.85352 104.36C10.2734 104.36 10.6022 104.217 10.8398 103.931C11.0807 103.644 11.2012 103.249 11.2012 102.744C11.2012 102.269 11.071 101.888 10.8105 101.602C10.5534 101.312 10.21 101.167 9.78027 101.167C9.38639 101.167 9.07715 101.253 8.85254 101.426L8.61328 101.621L7.89062 101.436Z" fill="#282846"/>
<path opacity="0.5" d="M4.8291 56H3.9209V49.9795L2.09961 50.6484V49.8281L4.6875 48.8564H4.8291V56ZM11.9336 52.9678C11.9336 54.0257 11.7529 54.8118 11.3916 55.3262C11.0303 55.8405 10.4655 56.0977 9.69727 56.0977C8.9388 56.0977 8.37728 55.847 8.0127 55.3457C7.64811 54.8411 7.45931 54.0892 7.44629 53.0898V51.8838C7.44629 50.8389 7.62695 50.0625 7.98828 49.5547C8.34961 49.0469 8.91602 48.793 9.6875 48.793C10.4525 48.793 11.0156 49.0387 11.377 49.5303C11.7383 50.0186 11.9238 50.7738 11.9336 51.7959V52.9678ZM11.0303 51.7324C11.0303 50.9674 10.9229 50.4108 10.708 50.0625C10.4932 49.7109 10.153 49.5352 9.6875 49.5352C9.22526 49.5352 8.88835 49.7093 8.67676 50.0576C8.46517 50.4059 8.35612 50.9414 8.34961 51.6641V53.1094C8.34961 53.8776 8.46029 54.4456 8.68164 54.8135C8.90625 55.1781 9.24479 55.3604 9.69727 55.3604C10.1432 55.3604 10.4736 55.1878 10.6885 54.8428C10.9066 54.4977 11.0205 53.9541 11.0303 53.2119V51.7324Z" fill="#282846"/>
<path opacity="0.5" d="M4.8291 8H3.9209V1.97949L2.09961 2.64844V1.82812L4.6875 0.856445H4.8291V8ZM7.89062 4.43555L8.25195 0.890625H11.8945V1.72559H9.01855L8.80371 3.66406C9.15202 3.45898 9.54753 3.35645 9.99023 3.35645C10.638 3.35645 11.1523 3.57129 11.5332 4.00098C11.9141 4.42741 12.1045 5.00521 12.1045 5.73438C12.1045 6.4668 11.9059 7.0446 11.5088 7.46777C11.1149 7.8877 10.5632 8.09766 9.85352 8.09766C9.22526 8.09766 8.71257 7.9235 8.31543 7.5752C7.91829 7.22689 7.69206 6.74512 7.63672 6.12988H8.49121C8.54655 6.53678 8.69141 6.8444 8.92578 7.05273C9.16016 7.25781 9.4694 7.36035 9.85352 7.36035C10.2734 7.36035 10.6022 7.21712 10.8398 6.93066C11.0807 6.64421 11.2012 6.2487 11.2012 5.74414C11.2012 5.26888 11.071 4.88802 10.8105 4.60156C10.5534 4.31185 10.21 4.16699 9.78027 4.16699C9.38639 4.16699 9.07715 4.25326 8.85254 4.42578L8.61328 4.62109L7.89062 4.43555Z" fill="#282846"/>
<path d="M22.5 5V151" stroke="#F0F0F0"/>
<path d="M88.5 5V151" stroke="#F0F0F0"/>
<path d="M155.5 5V151" stroke="#F0F0F0"/>
<path d="M222.5 5V151" stroke="#F0F0F0"/>
<path d="M288.5 5V151" stroke="#F0F0F0"/>
<path d="M355.5 5V151" stroke="#F0F0F0"/>
<path d="M422.5 5V151" stroke="#F0F0F0"/>
<path d="M22.5 151H422.5" stroke="#F0F0F0"/>
<path d="M22.5 102H422.5" stroke="#F0F0F0"/>
<path d="M22.5 53H422.5" stroke="#F0F0F0"/>
<path d="M22.5 5H422.5" stroke="#F0F0F0"/>
<path opacity="0.4" d="M22.5 141C22.5 141 55.5 121 88.5 121C122.5 121 122.5 102 155.5 102C188.5 102 188.5 82 222.5 82C255.5 82 255.5 63 288.5 63C322.5 63 322.5 43 355.5 43C388.5 43 422.5 34 422.5 34" stroke="#29A19C" stroke-width="2"/>
<circle cx="22.5" cy="141" r="4" fill="#A6CEE3"/>
<circle cx="88.5" cy="121" r="4" fill="#A6CEE3"/>
<circle cx="155.5" cy="102" r="4" fill="#A6CEE3"/>
<circle opacity="0.4" cx="222.5" cy="82" r="3.5" fill="#29A19C" stroke="#29A19C"/>
<circle opacity="0.4" cx="288.5" cy="63" r="3.5" fill="#29A19C" stroke="#29A19C"/>
<circle opacity="0.4" cx="355.5" cy="43" r="3.5" fill="#29A19C" stroke="#29A19C"/>
<circle cx="422.5" cy="34" r="4" fill="#A6CEE3"/>
<path d="M22.5 141C22.5 141 55.5 121 88.5 121C122.5 121 122.5 102 155.5 102C188.5 102 188.5 92 222.5 92C255.5 92 255.5 73 288.5 73C322.5 73 322.5 53 355.5 53C388.5 53 422.5 34 422.5 34" stroke="#29A19C" stroke-width="2"/>
<circle cx="22.5" cy="141" r="3.5" fill="#29A19C" stroke="#29A19C"/>
<circle cx="88.5" cy="121" r="3.5" fill="#29A19C" stroke="#29A19C"/>
<circle cx="155.5" cy="102" r="3.5" fill="#29A19C" stroke="#29A19C"/>
<circle cx="222.5" cy="92" r="3.5" fill="#29A19C" stroke="#29A19C"/>
<circle cx="288.5" cy="73" r="3.5" fill="#29A19C" stroke="#29A19C"/>
<circle cx="355.5" cy="53" r="3.5" fill="#29A19C" stroke="#29A19C"/>
<circle cx="422.5" cy="34" r="3.5" fill="#29A19C" stroke="#29A19C"/>
</svg>
